# xmcd
#
# Track frame offsets: 
#        182
#        12665
#        27335
#        40815
#        53357
#        64127
#        83865
#        98500
#        111580
#        124545
#        137632
#        152257
#        167092
#        180715
#        193055
#        207447
#        224747
#        237887
#        252367
#        262962
#        278195
#        293397
#
# Disc length: 4057 seconds
#
# Revision: 1
# Processed by: cddbd v1.5.2PL0 Copyright (c) Steve Scherf et al.
# Submitted via: ExactAudioCopy v0.99pb3
#
DISCID=380fd716
DTITLE=Andy Williams - The Best Of Andy Williams
DYEAR=1992
DGENRE=Easy Listening
TTITLE0=Moon River
TTITLE1=Love Story
TTITLE2=Almost There
TTITLE3=Days Of Wine And Roses
TTITLE4=Can't Get Used To Losing You
TTITLE5=Solitaire
TTITLE6=Can't Take My Eyes Off Of You
TTITLE7=Feelings
TTITLE8=The Look Of Love
TTITLE9=May Each Day
TTITLE10=Can't Help Falling In Love
TTITLE11=The Way We Were
TTITLE12=Love Theme From The Godfather
TTITLE13=A Man And A Woman
TTITLE14=Here There And Everywhere
TTITLE15=Yesterday When I Was Young
TTITLE16=Wichita Lineman
TTITLE17=Happy Heart
TTITLE18=Butterfly
TTITLE19=Home Lovin' Man
TTITLE20=Misty
TTITLE21=Born Free
EXTD=Dino Entertainment (UK) Ltd
EXTT0=
EXTT1=
EXTT2=
EXTT3=
EXTT4=
EXTT5=
EXTT6=
EXTT7=
EXTT8=
EXTT9=
EXTT10=
EXTT11=
EXTT12=
EXTT13=
EXTT14=
EXTT15=
EXTT16=
EXTT17=
EXTT18=
EXTT19=
EXTT20=
EXTT21=
PLAYORDER=
